<?xml version="1.0" encoding="UTF-8"?>
<svg id="Layer_1" xmlns="http://www.w3.org/2000/svg" version="1.1" viewBox="0 0 213.19 213.19">
  <!-- Generator: Adobe Illustrator 30.2.1, SVG Export Plug-In . SVG Version: 2.1.1 Build 1)  -->
  <defs>
    <style>
      .st0 {
        fill: #fff;
      }

      .st1 {
        fill: #1473a3;
      }

      .st2 {
        fill: #28292d;
      }
    </style>
  </defs>
  <rect class="st2" width="213.19" height="213.19" rx="27.87" ry="27.87"/>
  <g>
    <g>
      <path class="st0" d="M96.44,162.97h70.68c2.38-.01,4.83-1.86,4.83-4.46l-.04-89.45-11.63-.19c-4.3-.07-7.1-3.24-7.12-7.53l-.06-11.03h-56.61c-3.23-.01-5.13,2.32-5.13,5.43v11.16s-7.63-.09-7.63-.09v-11.57c.02-7.95,6.37-12.7,13.85-12.69l59.85.1,22.21,22.28.02,92.82c0,7.15-5.37,12.89-12.54,12.88l-71.8-.05c-6.79,0-11.6-6.48-11.6-12.66v-11.33s7.6-.02,7.6-.02l.11,11.74c.03,2.69,2.26,4.65,4.99,4.65Z"/>
      <path class="st0" d="M73.54,132.69c-1.26,2.26-2.94,4.09-4.97,5.78l-35.06-31.82,35.12-31.86c1.8,1.74,3.31,3.49,5.02,5.67l-28.74,26.15,28.63,26.07Z"/>
      <polygon class="st0" points="161.07 92.81 102.12 92.81 102.09 85.26 161.07 85.26 161.07 92.81"/>
      <path class="st1" d="M117.93,120.45l5.45,11.79-6.01,2.83-5.54-11.91c-2.76,1.96-4.03,3.42-7.29,5.76-.14.1-.35,0-.35-.17l.04-29.54c3.52,2.72,4.89,3.7,7.16,5.6l4.6,3.88,10.28,8.72c.38.33,1.41,1.34,1.04,1.4s-1.67.31-2.26.38l-7.12,1.25Z"/>
      <polygon class="st0" points="143.32 148.79 102.06 148.81 101.96 141.2 143.25 141.18 143.32 148.79"/>
      <polygon class="st0" points="143.29 74.22 102.08 74.23 102.04 66.6 143.18 66.59 143.29 74.22"/>
      <polygon class="st0" points="161.24 130.13 134.39 130.13 134.44 122.55 161.19 122.56 161.24 130.13"/>
      <polygon class="st0" points="161.24 111.46 134.48 111.45 134.51 103.91 161.21 103.89 161.24 111.46"/>
    </g>
    <rect class="st1" x="84.01" y="74.86" width="7.57" height="63.62"/>
  </g>
</svg>