<?xml version="1.0" encoding="UTF-8"?>
<svg id="Layer_1" xmlns="http://www.w3.org/2000/svg" version="1.1" viewBox="0 0 275 275">
  <!-- Generator: Adobe Illustrator 30.2.1, SVG Export Plug-In . SVG Version: 2.1.1 Build 1)  -->
  <defs>
    <style>
      .st0 {
        fill: #fff;
      }

      .st1 {
        fill: #28292d;
      }

      .st2 {
        fill: #1473a4;
      }
    </style>
  </defs>
  <rect class="st1" x="0" y="0" width="275" height="275" rx="137.5" ry="137.5"/>
  <g>
    <path class="st0" d="M116.27,209.07h89.73c3.03-.01,6.14-2.36,6.13-5.66l-.04-113.55-14.76-.24c-5.46-.09-9.01-4.11-9.04-9.56l-.07-14.01h-71.86c-4.1-.02-6.52,2.95-6.51,6.89v14.16s-9.69-.11-9.69-.11v-14.69c.02-10.09,8.09-16.12,17.59-16.11l75.98.13,28.2,28.29.02,117.83c0,9.07-6.82,16.36-15.92,16.35l-91.14-.07c-8.61,0-14.73-8.22-14.73-16.07v-14.38s9.65-.02,9.65-.02l.15,14.91c.03,3.42,2.87,5.9,6.33,5.9Z"/>
    <path class="st0" d="M87.2,170.63c-1.6,2.87-3.73,5.19-6.31,7.34l-44.51-40.39,44.59-40.44c2.29,2.21,4.21,4.43,6.37,7.2l-36.49,33.19,36.34,33.09Z"/>
    <polygon class="st0" points="198.31 120 123.47 120 123.44 110.42 198.31 110.41 198.31 120"/>
    <path class="st2" d="M143.54,155.09l6.92,14.97-7.63,3.59-7.04-15.12c-3.5,2.49-5.12,4.34-9.25,7.31-.18.13-.45,0-.45-.22l.05-37.5c4.47,3.45,6.2,4.7,9.09,7.11l5.84,4.93,13.05,11.07c.48.42,1.79,1.7,1.33,1.78s-2.11.4-2.87.48l-9.04,1.59Z"/>
    <polygon class="st0" points="175.77 191.07 123.39 191.09 123.27 181.42 175.68 181.4 175.77 191.07"/>
    <polygon class="st0" points="175.74 96.39 123.43 96.42 123.38 86.73 175.6 86.72 175.74 96.39"/>
    <polygon class="st0" points="198.52 167.38 164.44 167.38 164.51 157.75 198.45 157.76 198.52 167.38"/>
    <polygon class="st0" points="198.52 143.67 164.55 143.66 164.59 134.09 198.49 134.06 198.52 143.67"/>
    <rect class="st2" x="100.02" y="96.56" width="9.76" height="82.06"/>
  </g>
</svg>